kinematics
version=1
nRows=43
nColumns=17
inDegrees=yes
endheader
time	hip_flexion_l	hip_flexion_r	knee_angle_l	knee_angle_r	ankle_angle_l	ankle_angle_r	lumbar_extension	pelvis_tilt	arm_flex_l	arm_flex_r	elbow_flexion_l	elbow_flexion_r	head_flexion	pelvis_tx	pelvis_ty	pelvis_tz
2.102100	-22.768170	8.682745	12.662091	8.055859	3.307038	11.532500	7.235505	-4.506937	3.638300	3.767705	6.654945	8.272541	119.903059	5.955520	2.621378	0.000000
2.118783	-22.070620	8.538276	12.255871	8.742623	3.599140	9.464741	7.589400	-4.705447	3.747888	3.773294	6.813802	8.314265	120.109170	5.939716	2.618292	0.000000
2.135467	-21.284020	8.303816	11.785548	9.608955	3.932910	7.109364	7.896508	-4.877467	3.844761	3.762661	7.020853	8.494351	120.643522	5.924411	2.615339	0.000000
2.152150	-20.431514	7.988248	11.308627	10.656159	4.274866	4.513109	8.144349	-5.015780	3.917854	3.733675	7.265107	8.780639	121.464059	5.909526	2.612626	0.000000
2.168833	-19.496295	7.599657	10.816271	11.877632	4.581416	1.730099	8.322785	-5.114501	3.959750	3.688156	7.526274	9.134193	122.530500	5.894920	2.610192	0.000000
2.185517	-18.426544	7.160785	10.241530	13.240336	4.817980	-1.177006	8.422501	-5.168224	3.971203	3.638650	7.769693	9.530879	123.809419	5.880394	2.608015	0.000000
2.202200	-17.157105	6.716861	9.500254	14.682859	4.969168	-4.137745	8.431569	-5.170072	3.958723	3.605864	7.956710	9.964379	125.263879	5.865712	2.606022	0.000000
2.218883	-15.654823	6.303011	8.543595	16.154787	5.035709	-7.078564	8.344566	-5.116942	3.932400	3.602310	8.064250	10.430508	126.831288	5.850767	2.604106	0.000000
2.235567	-13.957927	5.908184	7.389824	17.646687	5.029329	-9.919149	8.177212	-5.017880	3.906185	3.618828	8.091118	10.914841	128.405567	5.835734	2.602160	0.000000
2.252250	-12.177883	5.477043	6.123846	19.175958	4.973578	-12.550876	7.969803	-4.895993	3.892830	3.629867	8.054996	11.397872	129.851678	5.821026	2.600100	0.000000
2.268933	-10.458587	4.937702	4.865790	20.760464	4.900386	-14.823928	7.773552	-4.780571	3.894557	3.611990	7.990153	11.867683	131.051005	5.807083	2.597874	0.000000
2.285617	-8.922248	4.230769	3.725805	22.401883	4.838888	-16.578090	7.630840	-4.695779	3.901390	3.558054	7.935567	12.324250	131.942153	5.794181	2.595471	0.000000
2.302300	-7.635833	3.333867	2.773632	24.070449	4.806738	-17.701057	7.561733	-4.653018	3.898690	3.478415	7.915167	12.771764	132.535407	5.782371	2.592924	0.000000
2.318983	-6.600513	2.276262	2.029356	25.696026	4.807572	-18.166893	7.559224	-4.648255	3.873863	3.394303	7.930830	13.207863	132.912505	5.771515	2.590319	0.000000
2.335667	-5.765675	1.129323	1.471518	27.181349	4.833215	-18.042250	7.596447	-4.666161	3.819758	3.332316	7.973204	13.625610	133.202539	5.761378	2.587751	0.000000
2.352350	-5.067113	-0.030847	1.058033	28.441004	4.869699	-17.475849	7.644907	-4.690480	3.738186	3.319824	8.034643	14.024919	133.520513	5.751767	2.585290	0.000000
2.369033	-4.456650	-1.161515	0.739653	29.439194	4.904064	-16.672828	7.688873	-4.712238	3.641068	3.375877	8.108341	14.411109	133.916698	5.742628	2.582992	0.000000
2.385717	-3.905335	-2.261427	0.468422	30.192762	4.930651	-15.848550	7.726328	-4.730283	3.544707	3.501441	8.183679	14.779630	134.376429	5.734015	2.580948	0.000000
2.402400	-3.398245	-3.357753	0.207024	30.749141	4.958696	-15.184116	7.763178	-4.747985	3.460833	3.679629	8.255313	15.110318	134.848905	5.726004	2.579286	0.000000
2.419083	-2.931531	-4.492540	-0.064915	31.160357	5.016535	-14.816483	7.809050	-4.770839	3.394028	3.886581	8.328544	15.381767	135.275677	5.718653	2.578103	0.000000
2.435767	-2.508521	-5.698553	-0.351338	31.441582	5.142274	-14.851008	7.873940	-4.804555	3.347803	4.101621	8.403105	15.587968	135.604639	5.711980	2.577403	0.000000
2.452450	-2.133838	-6.965302	-0.644014	31.523922	5.366781	-15.350237	7.962648	-4.851883	3.330544	4.311849	8.457937	15.738734	135.794375	5.705957	2.577104	0.000000
2.469133	-1.805088	-8.228217	-0.923638	31.253590	5.704855	-16.272858	8.067646	-4.908533	3.353004	4.514499	8.459402	15.848631	135.829439	5.700470	2.577081	0.000000
2.485817	-1.508986	-9.393827	-1.158931	30.454485	6.152994	-17.403469	8.167147	-4.962060	3.418998	4.712685	8.383431	15.925608	135.741427	5.695313	2.577202	0.000000
2.502500	-1.231401	-10.379217	-1.308129	29.014099	6.684472	-18.359337	8.234921	-4.997467	3.519268	4.904526	8.230599	15.965950	135.606016	5.690250	2.577341	0.000000
2.519183	-0.970612	-11.140335	-1.327930	26.952064	7.246175	-18.676722	8.253889	-5.004973	3.634480	5.079333	8.024490	15.959213	135.512636	5.685109	2.577388	0.000000
2.535867	-0.738208	-11.680804	-1.198682	24.447377	7.765945	-17.902547	8.221389	-4.983055	3.742910	5.222156	7.799642	15.893047	135.528979	5.679815	2.577258	0.000000
2.552550	-0.548905	-12.043543	-0.914117	21.800781	8.165788	-15.708847	8.145300	-4.936227	3.826769	5.315718	7.589344	15.747381	135.685909	5.674366	2.576887	0.000000
2.569233	-0.407662	-12.289665	-0.511120	19.336062	8.370968	-12.110003	8.036042	-4.870463	3.874555	5.340592	7.419880	15.489255	135.993678	5.668801	2.576252	0.000000
2.585917	-0.301767	-12.475999	-0.058429	17.294236	8.319018	-7.664564	7.899639	-4.789227	3.880691	5.281274	7.310296	15.083972	136.462004	5.663161	2.575382	0.000000
2.602600	-0.204763	-12.640997	0.368239	15.780679	7.980729	-3.283595	7.735426	-4.692162	3.845410	5.137316	7.270337	14.518876	137.096647	5.657452	2.574384	0.000000
2.619283	-0.091933	-12.798472	0.721927	14.778548	7.390811	0.339463	7.538257	-4.576359	3.773933	4.930803	7.297892	13.821843	137.886361	5.651623	2.573419	0.000000
2.635967	0.046023	-12.935250	1.003051	14.194115	6.658951	3.035855	7.302522	-4.438661	3.674827	4.702874	7.382041	13.060063	138.796461	5.645589	2.572650	0.000000
2.652650	0.204112	-13.012964	1.240099	13.894256	5.930512	4.990117	7.025256	-4.277428	3.559069	4.500072	7.509740	12.319680	139.767818	5.639282	2.572176	0.000000
2.669333	0.376175	-12.978771	1.453170	13.724986	5.319392	6.453329	6.707345	-4.093223	3.437731	4.358792	7.671106	11.680309	140.725134	5.632685	2.572015	0.000000
2.686017	0.564557	-12.786030	1.635920	13.525906	4.874410	7.594020	6.355227	-3.889764	3.319514	4.296470	7.859435	11.199238	141.591290	5.625826	2.572131	0.000000
2.702700	0.774869	-12.416692	1.767416	13.157321	4.596062	8.493293	5.984273	-3.675826	3.211396	4.311426	8.066975	10.909321	142.301318	5.618782	2.572449	0.000000
2.719383	1.008010	-11.891528	1.832328	12.534087	4.467730	9.189999	5.617490	-3.464469	3.119172	4.386823	8.282180	10.821003	142.820783	5.611662	2.572870	0.000000
2.736067	1.264221	-11.261290	1.827979	11.644050	4.475328	9.696797	5.276119	-3.267709	3.045966	4.494860	8.489486	10.919471	143.155236	5.604551	2.573291	0.000000
2.752750	1.545029	-10.590631	1.767380	10.543314	4.615153	9.986007	4.972670	-3.092578	2.992408	4.603363	8.670376	11.164964	143.335825	5.597486	2.573663	0.000000
2.769433	1.844244	-9.946555	1.683341	9.333494	4.892184	9.997887	4.713327	-2.942520	2.959139	4.686292	8.809192	11.506236	143.402858	5.590471	2.574024	0.000000
2.786117	2.152065	-9.382774	1.616265	8.126803	5.312489	9.693738	4.497564	-2.817190	2.947072	4.732200	8.904166	11.896398	143.408867	5.583478	2.574498	0.000000
2.802800	2.476766	-8.917005	1.593455	7.016196	5.875612	9.111786	4.308475	-2.706993	2.952399	4.745463	8.974961	12.298600	143.419838	5.576393	2.575276	0.000000
